<?xml version="1.0" encoding="UTF-8" standalone="no"?>
<!-- Created with Inkscape (http://www.inkscape.org/) -->

<svg
   xmlns:dc="http://purl.org/dc/elements/1.1/"
   xmlns:cc="http://creativecommons.org/ns#"
   xmlns:rdf="http://www.w3.org/1999/02/22-rdf-syntax-ns#"
   xmlns:svg="http://www.w3.org/2000/svg"
   xmlns="http://www.w3.org/2000/svg"
   xmlns:sodipodi="http://sodipodi.sourceforge.net/DTD/sodipodi-0.dtd"
   xmlns:inkscape="http://www.inkscape.org/namespaces/inkscape"
   width="39mm"
   height="39mm"
   viewBox="0 0 138.18898 138.18898"
   id="svg2"
   version="1.1"
   inkscape:version="0.91 r13725"
   sodipodi:docname="Logo.svg"
   inkscape:export-filename="C:\Users\Magma\Desktop\projects\portable-pi-gaming\resources\Drawings\Logo.png"
   inkscape:export-xdpi="6000"
   inkscape:export-ydpi="6000">
  <defs
     id="defs4">
    <clipPath
       id="clipPath3350"
       clipPathUnits="userSpaceOnUse">
      <path
         inkscape:connector-curvature="0"
         id="path3352"
         d="m 0,1229.566 2934.729,0 L 2934.729,0 0,0 0,1229.566 Z" />
    </clipPath>
  </defs>
  <sodipodi:namedview
     id="base"
     pagecolor="#ffffff"
     bordercolor="#666666"
     borderopacity="1.0"
     inkscape:pageopacity="0.0"
     inkscape:pageshadow="2"
     inkscape:zoom="3.6203867"
     inkscape:cx="21.853813"
     inkscape:cy="140.09514"
     inkscape:document-units="px"
     inkscape:current-layer="layer1"
     showgrid="false"
     inkscape:window-width="1536"
     inkscape:window-height="801"
     inkscape:window-x="-8"
     inkscape:window-y="-8"
     inkscape:window-maximized="1" />
  <metadata
     id="metadata7">
    <rdf:RDF>
      <cc:Work
         rdf:about="">
        <dc:format>image/svg+xml</dc:format>
        <dc:type
           rdf:resource="http://purl.org/dc/dcmitype/StillImage" />
        <dc:title></dc:title>
      </cc:Work>
    </rdf:RDF>
  </metadata>
  <g
     inkscape:label="Capa 1"
     inkscape:groupmode="layer"
     id="layer1"
     transform="translate(0,-914.17319)">
    <path
       inkscape:connector-curvature="0"
       id="path3356"
       style="fill:#2b2b2a;fill-opacity:1;fill-rule:nonzero;stroke:none"
       d="m 16.528685,846.76518 c -10.0063685,0 -20.2598371,4.68993 -29.604983,8.96437 -2.865007,1.31006 -5.570927,2.54793 -8.257626,3.66004 -2.755483,1.14081 -5.627724,2.19938 -8.668575,3.31963 -13.085849,4.82284 -27.917794,10.28877 -33.432461,23.55387 -5.478158,13.17617 0.691207,27.02602 6.657567,40.41974 1.377476,3.09299 2.678583,6.01386 3.827479,8.91034 1.122617,2.83098 2.158458,5.77001 3.255148,8.88117 4.91729,13.95073 10.001959,28.37672 23.14301,34.04107 13.234885,5.70547 27.7410702,-0.92947 40.539608,-6.78364 2.865007,-1.31054 5.571104,-2.54793 8.257627,-3.66052 2.755831,-1.14081 5.628249,-2.1989 8.669105,-3.31962 13.085848,-4.82285 27.91779,-10.28878 33.432986,-23.5534 5.476923,-13.17569 -0.692439,-27.02459 -6.658623,-40.4183 -1.377827,-3.09252 -2.679111,-6.01434 -3.828008,-8.9113 -1.122618,-2.83098 -2.158634,-5.77001 -3.255324,-8.88213 -4.916938,-13.95025 -10.00143,-28.37624 -23.141956,-34.04059 -3.571207,-1.53956 -7.237307,-2.18073 -10.934974,-2.18073 m -32.134174,135.11289 c -3.843886,0 -7.666247,-0.67034 -11.411009,-2.28449 -13.612676,-5.86755 -19.017109,-21.20102 -23.785364,-34.72909 -1.09281,-3.10016 -2.125123,-6.02868 -3.239274,-8.83862 -1.139725,-2.87353 -2.43607,-5.78388 -3.808607,-8.86539 -5.784696,-12.98588 -12.3412,-27.70496 -6.669032,-41.34778 5.711324,-13.73893 20.799011,-19.29904 34.110439,-24.20461 3.029567,-1.11642 5.891227,-2.17116 8.625543,-3.30336 2.666767,-1.10351 5.363339,-2.33708 8.218296,-3.64284 13.02094254,-5.95552 27.779162,-12.70474 41.492903,-6.79415 13.612144,5.86803 19.016402,21.20054 23.784126,34.72861 1.092989,3.10064 2.1253,6.02964 3.239804,8.83958 1.139726,2.87449 2.436248,5.78483 3.808783,8.86635 5.784696,12.98588 12.341025,27.70448 6.670265,41.34634 -5.712026,13.73845 -20.799358,19.29856 -34.11079,24.20413 -3.02974,1.1169 -5.891577,2.17164 -8.625893,3.30336 -2.66712,1.10399 -5.363516,2.33756 -8.218473,3.64284 -9.4652553,4.32942 -19.8488887,9.07912 -30.081717,9.07912" />
    <path
       inkscape:connector-curvature="0"
       id="path3360"
       style="fill:#2b2b2a;fill-opacity:1;fill-rule:nonzero;stroke:none"
       d="m -14.533848,846.08768 c -3.216873,0 -6.421578,0.51255 -9.585011,1.71025 -13.420077,5.0796 -19.068789,19.32486 -24.531249,33.1006 -1.191579,3.00501 -2.317194,5.84364 -3.520766,8.57661 -1.248195,2.83432 -2.65054,5.69016 -4.135251,8.71287 -6.443626,13.12071 -13.106837,26.68751 -8.123759,40.07453 4.997187,13.4248 19.549228,19.52758 32.388153,24.91175 3.049319,1.27899 5.929497,2.48721 8.683392,3.77623 2.650716,1.24122 5.313251,2.60817 8.132223,4.05498 9.6081198,4.93234 20.1986379,10.36814 30.67169,10.36862 3.216874,0 6.421579,-0.51255 9.584835,-1.71025 13.420607,-5.08008 19.069143,-19.32534 24.531956,-33.10156 1.191402,-3.00501 2.316842,-5.84316 3.520235,-8.57613 1.248198,-2.83432 2.650366,-5.68968 4.135074,-8.71239 6.443452,-13.12071 13.106135,-26.68799 8.122704,-40.07549 -4.997191,-13.42527 -19.549229,-19.52758 -32.388331,-24.91175 -3.04897,-1.27898 -5.928971,-2.48673 -8.682512,-3.77575 -2.650893,-1.24121 -5.313423,-2.60817 -8.132401,-4.05498 -9.608119,-4.93234 -20.1979295,-10.36814 -30.670982,-10.36814 m 29.962846,136.46741 c -10.7272097,0 -21.454242,-5.50657 -31.191288,-10.50536 -2.809099,-1.44203 -5.462459,-2.80373 -8.09395,-4.03634 -2.732025,-1.27898 -5.601622,-2.48242 -8.639476,-3.75662 -13.058687,-5.47645 -27.85959,-11.68347 -33.034209,-25.58448 -5.159451,-13.86084 1.922117,-28.27966 8.170145,-41.00161 1.479067,-3.01171 2.876298,-5.85656 4.114792,-8.66889 1.194577,-2.71288 2.316311,-5.54147 3.503657,-8.53596 5.297552,-13.35978 11.302008,-28.50247 25.206756,-33.76615 13.950079,-5.28042 28.4310429,2.15299 41.20753,8.71144 2.809453,1.44202 5.462818,2.80468 8.094308,4.03681 2.732021,1.27898 5.601087,2.48194 8.638946,3.75615 13.058685,5.47596 27.859764,11.68298 33.034383,25.58447 5.159629,13.86132 -1.921585,28.28062 -8.16926,41.00257 -1.478893,3.01123 -2.876123,5.85608 -4.114266,8.66841 -1.194753,2.7124 -2.316133,5.54099 -3.503657,8.53549 -5.297727,13.36025 -11.302184,28.50294 -25.207462,33.7671 -3.318996,1.25604 -6.667798,1.79297 -10.016949,1.79297" />
    <path
       inkscape:connector-curvature="0"
       id="path3356-0"
       style="fill:#2b2b2a;fill-opacity:1;fill-rule:nonzero;stroke:none"
       d="m 16.528212,846.76518 c -10.0063736,0 -20.2598423,4.68993 -29.604988,8.96437 -2.865007,1.31006 -5.570927,2.54793 -8.257622,3.66004 -2.755482,1.14081 -5.627723,2.19938 -8.668574,3.31963 -13.085851,4.82284 -27.917796,10.28877 -33.432464,23.55387 -5.478158,13.17617 0.691207,27.02602 6.657567,40.41974 1.377476,3.09299 2.678583,6.01386 3.827479,8.91034 1.122617,2.83098 2.158458,5.77001 3.255148,8.88117 4.91729,13.95073 10.001959,28.37672 23.143013,34.04107 13.23488,5.70547 27.7410651,-0.92947 40.539603,-6.78364 2.865012,-1.31054 5.571109,-2.54793 8.257631,-3.66052 2.755832,-1.14081 5.628249,-2.1989 8.669106,-3.31962 13.085848,-4.82285 27.91779,-10.28878 33.432986,-23.5534 5.476923,-13.17569 -0.69244,-27.02459 -6.658623,-40.4183 -1.377827,-3.09252 -2.679112,-6.01434 -3.828008,-8.9113 -1.122619,-2.83098 -2.158634,-5.77001 -3.255324,-8.88213 -4.916938,-13.95025 -10.00143,-28.37624 -23.141956,-34.04059 -3.571207,-1.53956 -7.237308,-2.18073 -10.934974,-2.18073 m -32.134179,135.11289 c -3.843886,0 -7.666243,-0.67034 -11.411004,-2.28449 -13.612678,-5.86755 -19.017112,-21.20102 -23.785367,-34.72909 -1.09281,-3.10016 -2.125123,-6.02868 -3.239274,-8.83862 -1.139725,-2.87353 -2.436069,-5.78388 -3.808607,-8.86539 -5.784695,-12.98588 -12.3412,-27.70496 -6.669032,-41.34778 5.711324,-13.73893 20.799011,-19.29904 34.110441,-24.20461 3.029568,-1.11642 5.891228,-2.17116 8.625544,-3.30336 2.666762,-1.10351 5.363334,-2.33708 8.218291,-3.64284 13.02094241,-5.95552 27.779162,-12.70474 41.492908,-6.79415 13.612144,5.86803 19.016401,21.20054 23.784126,34.72861 1.092989,3.10064 2.125299,6.02964 3.239804,8.83958 1.139726,2.87449 2.436248,5.78483 3.808783,8.86635 5.784696,12.98588 12.341024,27.70448 6.670265,41.34634 -5.712026,13.73845 -20.799359,19.29856 -34.110791,24.20413 -3.02974,1.1169 -5.891576,2.17164 -8.625892,3.30336 -2.667121,1.10399 -5.363517,2.33756 -8.218478,3.64284 -9.4652554,4.32942 -19.8488888,9.07912 -30.081717,9.07912" />
    <path
       inkscape:connector-curvature="0"
       id="path3360-5"
       style="fill:#2b2b2a;fill-opacity:1;fill-rule:nonzero;stroke:none"
       d="m -14.533848,846.08768 c -3.216873,0 -6.421578,0.51255 -9.585011,1.71025 -13.420076,5.0796 -19.068787,19.32486 -24.531248,33.1006 -1.191578,3.00501 -2.317194,5.84364 -3.520766,8.57661 -1.248194,2.83432 -2.65054,5.69016 -4.135251,8.71287 -6.443626,13.12071 -13.106837,26.68751 -8.123759,40.07453 4.997188,13.4248 19.549229,19.52758 32.388152,24.91175 3.049319,1.27899 5.929497,2.48721 8.683392,3.77623 2.650716,1.24122 5.313251,2.60817 8.132223,4.05498 9.6081198,4.93234 20.1986379,10.36814 30.67169,10.36862 3.216874,0 6.421579,-0.51255 9.584835,-1.71025 13.420607,-5.08008 19.069143,-19.32534 24.531956,-33.10156 1.191402,-3.00501 2.316842,-5.84316 3.520235,-8.57613 1.248198,-2.83432 2.650366,-5.68968 4.135074,-8.71239 6.443452,-13.12071 13.106135,-26.68799 8.122704,-40.07549 -4.997191,-13.42527 -19.549229,-19.52758 -32.388331,-24.91175 -3.04897,-1.27898 -5.928971,-2.48673 -8.682512,-3.77575 -2.650893,-1.24121 -5.313423,-2.60817 -8.132401,-4.05498 -9.608119,-4.93234 -20.1979295,-10.36814 -30.670982,-10.36814 m 29.962846,136.46741 c -10.7272097,0 -21.454242,-5.50657 -31.191288,-10.50536 -2.809099,-1.44203 -5.462459,-2.80373 -8.09395,-4.03634 -2.732025,-1.27898 -5.601622,-2.48242 -8.639476,-3.75662 -13.058685,-5.47645 -27.859588,-11.68347 -33.034208,-25.58448 -5.159451,-13.86084 1.922117,-28.27966 8.170145,-41.00161 1.479068,-3.01171 2.876298,-5.85656 4.114792,-8.66889 1.194577,-2.71288 2.316312,-5.54147 3.503658,-8.53596 5.297551,-13.35978 11.302007,-28.50247 25.206754,-33.76615 13.950079,-5.28042 28.4310429,2.15299 41.20753,8.71144 2.809453,1.44202 5.462818,2.80468 8.094308,4.03681 2.732021,1.27898 5.601087,2.48194 8.638946,3.75615 13.058685,5.47596 27.859764,11.68298 33.034383,25.58447 5.159629,13.86132 -1.921585,28.28062 -8.16926,41.00257 -1.478893,3.01123 -2.876123,5.85608 -4.114266,8.66841 -1.194753,2.7124 -2.316133,5.54099 -3.503657,8.53549 -5.297727,13.36025 -11.302184,28.50294 -25.207462,33.7671 -3.318996,1.25604 -6.667798,1.79297 -10.016949,1.79297" />
  </g>
</svg>
